HIERARCHY
ROOT Hips
{
	OFFSET -240.519104 92.930817 402.348785
	CHANNELS 6 Xposition Yposition Zposition Zrotation Yrotation Xrotation 
	JOINT LeftUpLeg
	{
		OFFSET 0.103457 1.857819 10.548500
		CHANNELS 3 Zrotation Yrotation Xrotation
		JOINT LeftLeg
		{
			OFFSET 43.500000 -0.000019 -0.000010
			CHANNELS 3 Zrotation Yrotation Xrotation
			JOINT LeftFoot
			{
				OFFSET 42.372196 0.000008 0.000000
				CHANNELS 3 Zrotation Yrotation Xrotation
				JOINT LeftToe
				{
					OFFSET 17.300003 0.000001 0.000006
					CHANNELS 3 Zrotation Yrotation Xrotation
					End Site
					{
						OFFSET 0.000000 0.000000 0.000000
					}
				}
			}
		}
	}
	JOINT RightUpLeg
	{
		OFFSET 0.103456 1.857821 -10.548498
		CHANNELS 3 Zrotation Yrotation Xrotation
		JOINT RightLeg
		{
			OFFSET 43.500046 -0.000031 0.000019
			CHANNELS 3 Zrotation Yrotation Xrotation
			JOINT RightFoot
			{
				OFFSET 42.372261 -0.000004 0.000021
				CHANNELS 3 Zrotation Yrotation Xrotation
				JOINT RightToe
				{
					OFFSET 17.300016 0.000003 0.000000
					CHANNELS 3 Zrotation Yrotation Xrotation
					End Site
					{
						OFFSET 0.000000 0.000000 0.000000
					}
				}
			}
		}
	}
	JOINT Spine
	{
		OFFSET 6.901967 -2.603733 -0.000002
		CHANNELS 3 Zrotation Yrotation Xrotation
		JOINT Spine1
		{
			OFFSET 12.588102 0.000004 -0.000004
			CHANNELS 3 Zrotation Yrotation Xrotation
			JOINT Spine2
			{
				OFFSET 12.343203 -0.000004 0.000000
				CHANNELS 3 Zrotation Yrotation Xrotation
				JOINT Neck
				{
					OFFSET 25.832895 -0.000011 0.000005
					CHANNELS 3 Zrotation Yrotation Xrotation
					JOINT Head
					{
						OFFSET 11.766605 0.000003 0.000008
						CHANNELS 3 Zrotation Yrotation Xrotation
						End Site
						{
							OFFSET 0.000000 0.000000 0.000000
						}
					}
				}
				JOINT LeftShoulder
				{
					OFFSET 19.745905 -1.480360 6.000111
					CHANNELS 3 Zrotation Yrotation Xrotation
					JOINT LeftArm
					{
						OFFSET 11.284124 0.000007 -0.000017
						CHANNELS 3 Zrotation Yrotation Xrotation
						JOINT LeftForeArm
						{
							OFFSET 33.000050 0.000003 0.000017
							CHANNELS 3 Zrotation Yrotation Xrotation
							JOINT LeftHand
							{
								OFFSET 25.200005 0.000010 0.000011
								CHANNELS 3 Zrotation Yrotation Xrotation
								End Site
								{
									OFFSET 0.000000 0.000000 0.000000
								}
							}
						}
					}
				}
				JOINT RightShoulder
				{
					OFFSET 19.746092 -1.480387 -6.000073
					CHANNELS 3 Zrotation Yrotation Xrotation
					JOINT RightArm
					{
						OFFSET 11.284132 -0.000045 -0.000015
						CHANNELS 3 Zrotation Yrotation Xrotation
						JOINT RightForeArm
						{
							OFFSET 33.000092 0.000031 0.000005
							CHANNELS 3 Zrotation Yrotation Xrotation
							JOINT RightHand
							{
								OFFSET 25.199797 0.000145 0.000419
								CHANNELS 3 Zrotation Yrotation Xrotation
								End Site
								{
									OFFSET 0.000000 0.000000 0.000000
								}
							}
						}
					}
				}
			}
		}
	}
}
MOTION
Frames: 17
Frame Time: 0.033333
-72.07756 86.401421 307.714203 102.258901 4.151229 -98.226316 140.201025 -5.625698 168.546939 -61.064077 2.208176 13.701021 82.694821 -10.210831 -2.957469 21.454551 0.003088 -2e-06 174.466882 -5.197291 -161.305914 -31.543955 -7.441527 4.599577 87.023884 0.631612 19.992621 21.454555 -0.003097 -1.6e-05 7.675718 2.502591 1.137976 5.395376 4.949704 2.393028 5.076282 4.964187 2.363049 -1.487116 -0.151537 15.212394 -3.077478 -15.618921 18.631303 -166.759793 -71.083336 -14.970354 -28.298561 50.172452 18.329806 -33.035808 -10.138233 0.975891 8.910483 -5.964176 35.931839 178.724781 76.181403 0.110622 -3.747848 -44.396462 -42.609845 -29.841168 13.034271 -1.126471 8.890984 3.673031 -10.405444 
-70.234222 86.158638 304.237701 102.910501 3.656903 -94.823175 139.840514 -5.416898 163.897055 -49.961898 0.908492 9.714542 82.164778 -7.225686 -2.210135 21.454548 0.003075 -0.0 178.857724 -6.77941 -159.179321 -28.944689 -6.976478 4.739486 87.467075 0.52456 20.608487 21.454557 -0.003104 -1.6e-05 7.610636 2.538165 1.305308 5.273233 5.014561 2.726911 4.954194 5.031061 2.696537 -1.374315 0.154755 15.541279 -3.484775 -16.408066 19.372563 -166.589694 -71.368797 -15.145084 -23.813837 49.467228 21.662765 -33.222259 -10.126333 0.978213 8.917084 -5.527862 35.758581 179.443782 76.167845 0.845331 -4.789118 -43.176334 -40.820455 -30.499172 13.910919 -1.195737 8.093158 6.551343 -9.371087 
-68.773071 85.743538 300.809113 103.273205 3.328423 -92.215825 140.450382 -4.475997 158.083472 -38.067329 0.241382 3.591931 81.711705 -3.018554 -2.512757 21.454557 0.003098 -1e-06 -177.179123 -8.598009 -159.416752 -26.345484 -6.625104 5.68587 87.687881 -0.013716 21.659356 21.454557 -0.003109 -1.7e-05 7.516012 2.525457 1.446732 5.08946 4.985229 3.005352 4.770527 5.003418 2.975152 -1.400277 0.634644 15.948417 -3.859817 -17.321483 20.289222 -166.169418 -71.542994 -15.577966 -19.126934 49.009893 24.696506 -32.794395 -10.292304 0.980925 8.593342 -6.485049 34.985889 179.757929 76.334037 1.169739 -6.076028 -42.289663 -38.148761 -31.171037 14.876937 -1.271291 7.595972 8.024811 -11.165591 
-67.705276 85.082474 297.489014 103.648107 3.007597 -89.92877 141.211292 -2.867606 151.969633 -27.973764 0.742729 -2.344518 81.365441 1.488802 -0.830891 21.454551 0.003086 -3e-06 -174.126316 -10.380921 -160.152391 -25.133086 -6.765281 6.950982 87.789255 -0.580436 23.617905 21.454557 -0.003098 -1.7e-05 7.422295 2.540342 1.493126 4.904274 5.015567 3.09484 4.58536 5.034284 3.064468 -1.484008 1.213015 16.430367 -4.277854 -18.245406 21.336609 -165.71461 -71.485586 -16.047097 -14.417172 48.929976 27.099921 -31.340494 -10.669777 0.975967 8.048873 -8.172824 34.096035 179.439807 76.500113 0.84808 -7.406638 -41.545698 -35.019046 -31.920455 15.703971 -1.339856 7.294259 8.735307 -14.137109 
-67.000023 84.258278 294.195312 104.186497 2.338871 -87.559316 142.280531 -1.572998 148.985386 -22.441314 1.897286 -6.68497 80.569075 4.963405 1.292322 21.454553 0.003085 -3e-06 -172.219504 -11.433311 -159.550268 -26.856147 -7.11128 7.142529 87.557622 -0.215217 26.083178 21.454558 -0.003102 -1.8e-05 7.377431 2.625704 1.417188 4.813764 5.190594 2.944673 4.494702 5.208413 2.913228 -1.44355 1.906519 16.887923 -4.675271 -19.05904 22.387456 -165.651417 -71.339994 -16.112773 -10.027726 49.520938 28.571112 -28.450841 -11.080912 0.948141 7.689488 -10.246155 33.118662 178.707515 76.366842 0.097098 -8.539188 -40.699987 -31.759478 -32.565932 16.257426 -1.389077 7.210871 9.019377 -15.52176 
-66.607224 83.264969 290.832611 104.517795 1.203414 -85.127195 143.610369 -0.176891 151.309987 -22.326678 2.555069 -8.17217 79.949072 7.440402 7.33236 21.454555 0.003092 -2e-06 -172.326779 -10.247801 -157.033412 -33.809126 -6.950138 5.380816 85.49175 1.794007 27.594468 21.45456 -0.003106 -1.7e-05 7.372221 2.69335 1.266517 4.798435 5.332242 2.645769 4.479195 5.348257 2.61345 -0.99834 2.663138 17.215454 -4.943068 -19.63914 23.26289 -165.985604 -71.332918 -15.768182 -6.370307 50.803241 29.249886 -24.008834 -11.005416 0.871028 8.147819 -12.523017 31.561676 178.249919 75.856839 -0.382008 -9.228263 -39.860868 -28.352494 -32.977335 16.450968 -1.410404 7.371484 8.847492 -14.273592 
-66.802658 82.562073 287.5979 103.505008 -0.04872 -82.647898 144.596361 2.60511 156.486478 -24.937246 1.91742 -10.391317 79.981331 11.474096 17.853346 21.454551 0.003089 -1e-06 -174.780525 -5.558394 -154.318671 -45.184433 -6.618077 2.550048 77.517087 6.06181 28.41929 21.454557 -0.00311 -1.5e-05 7.383766 2.511678 1.06818 4.807948 4.977118 2.241172 4.4888 4.990694 2.211037 -0.184973 3.172838 17.431206 -5.118628 -19.897668 23.823237 -166.475985 -71.443021 -15.262215 -4.303863 52.377657 29.148389 -18.549165 -9.907104 0.731527 9.803443 -13.861512 29.474011 178.516993 75.329904 -0.120642 -9.671404 -39.62329 -24.613621 -33.20855 16.297835 -1.405603 7.744895 8.38505 -11.534326 
-67.3741 82.190811 284.279907 101.885993 -1.274875 -80.083374 146.017806 6.172296 160.50155 -27.416022 1.930839 -13.140618 80.506422 14.76281 24.573591 21.454551 0.003087 -1e-06 -179.004505 1.158797 -154.383039 -58.978158 -6.462226 -0.924486 65.540836 10.815857 25.496476 21.454563 -0.003105 -2e-05 7.418484 2.198652 0.913217 4.864154 4.357234 1.918785 4.545248 4.368878 1.892404 0.376327 3.121284 17.682912 -5.358773 -19.901008 24.120904 -167.136901 -71.43964 -14.580693 -4.085738 53.374694 28.400879 -13.408659 -7.892186 0.557263 12.18633 -12.542886 28.309708 179.043096 75.156226 0.414084 -9.987955 -40.389477 -20.98952 -33.388704 15.919506 -1.385225 8.170124 8.124677 -8.987568 
-68.047897 82.283737 280.983704 100.624095 -2.390666 -77.22998 147.911886 8.794908 161.894635 -30.210248 2.809154 -13.754848 82.905902 14.48189 24.380396 21.454553 0.003102 1e-06 174.804827 6.788607 -158.732271 -71.359392 -6.096739 -5.043116 53.321347 13.579561 18.51813 21.454562 -0.003105 -2e-05 7.498752 1.961688 0.830879 5.017168 3.885715 1.746452 4.698441 3.896337 1.722934 0.123486 2.513671 18.157262 -5.643962 -19.796274 24.361005 -167.87422 -71.190379 -13.820487 -5.32056 53.613242 27.047513 -10.145534 -5.854917 0.406664 14.29952 -9.173707 29.005023 178.901506 75.255858 0.271337 -10.44725 -41.661866 -18.338452 -33.457142 15.451172 -1.356567 8.396638 8.222869 -7.405338 
-68.657188 82.37558 278.065186 99.757215 -3.260776 -73.911997 149.891712 10.362189 162.229943 -32.625471 3.36363 -12.762683 84.93024 13.105731 23.323699 21.454555 0.003102 1e-06 167.713027 9.269902 -165.667673 -79.463104 -5.653138 -7.605692 50.506517 15.504837 17.391326 21.454563 -0.003113 -2.3e-05 7.609056 1.845478 0.780119 5.234148 3.653972 1.643217 4.915487 3.663956 1.621102 -0.653632 1.599242 18.922657 -5.813027 -19.674614 24.694923 -168.003679 -70.805088 -13.686879 -6.815296 53.679112 25.48474 -9.614333 -4.783986 0.333537 15.510765 -6.903696 29.634507 177.755496 75.434699 -0.897503 -11.033468 -42.592363 -17.62564 -33.342398 15.047188 -1.328031 8.311873 8.089254 -6.83452 
-69.300453 82.565002 275.393707 98.990143 -3.78275 -69.630001 152.22362 12.079694 163.874762 -33.889695 3.493305 -11.4973 86.311618 11.753441 22.317689 21.454553 0.003091 0.0 161.405034 9.925992 -172.35492 -82.920122 -5.450876 -7.707572 56.219714 14.529446 17.594108 21.454558 -0.003105 -4e-06 7.64244 1.816259 0.659868 5.296696 3.600541 1.40239 4.978008 3.609072 1.380601 -1.16772 0.729628 19.781896 -5.886102 -19.688674 25.155235 -167.072096 -70.469391 -14.649012 -7.491823 54.295438 24.126675 -11.814443 -5.091825 0.363354 15.773256 -7.534954 27.656408 176.540405 75.717291 -2.133612 -11.145382 -43.121132 -19.186708 -33.474658 14.872322 -1.319656 8.024875 6.962336 -7.309906 
-70.194847 83.17131 272.776398 98.695994 -4.213635 -63.61701 155.813595 14.268787 167.650886 -32.849354 3.770594 -10.016681 86.684758 10.638141 22.076459 21.454551 0.0031 1e-06 156.342798 9.520594 -176.853228 -82.136911 -5.866541 -3.551482 60.103725 9.505565 14.953608 21.454551 -0.003109 -2.9e-05 7.559087 1.948639 0.385973 5.122795 3.878336 0.857755 4.803949 3.883575 0.83429 -1.150887 0.366965 20.362399 -5.99619 -20.051299 25.696707 -165.811079 -70.31914 -15.951941 -7.404771 55.405904 23.06796 -16.293005 -6.457724 0.484597 15.184513 -9.807304 23.482682 176.996784 75.988348 -1.660144 -10.355492 -43.465893 -22.083549 -34.495194 15.001409 -1.350741 7.650625 4.843671 -8.668306 
-71.157799 83.863449 270.291199 98.499121 -4.442276 -56.112979 159.947403 16.202394 172.014954 -30.925034 4.012713 -7.797295 86.438346 9.281764 22.354692 21.454555 0.003093 0.0 152.560704 8.520197 -179.932427 -78.420332 -6.818914 3.063279 63.176053 3.657062 13.746322 21.454562 -0.003112 -9e-06 7.397663 2.068722 0.031341 4.788256 4.134316 0.147702 4.469261 4.135274 0.122699 -1.091379 0.807638 20.421272 -6.048854 -20.655819 26.13027 -165.380491 -70.493262 -16.395982 -7.399158 56.284259 22.542488 -22.114814 -8.168939 0.660227 13.745462 -11.160498 20.297196 179.900995 75.858895 1.306545 -8.590571 -43.573718 -25.16971 -36.369675 15.316863 -1.414857 7.232558 2.763633 -10.020951 
-72.120934 84.443863 267.827698 98.251656 -4.415075 -47.661989 163.813249 17.142503 175.360217 -29.589305 3.918849 -4.346198 86.191093 7.218525 23.054412 21.454553 0.003089 -1e-06 149.964207 7.593308 177.204695 -72.613121 -7.986614 6.495468 68.484005 -0.446036 11.211481 21.454555 -0.003112 -1.9e-05 7.217406 2.072553 -0.338825 4.413962 4.156337 -0.599435 4.094989 4.152774 -0.624569 -1.48575 1.797662 19.972981 -5.876933 -21.078095 26.17107 -166.087606 -71.046248 -15.663879 -8.684318 56.563996 22.394507 -27.889413 -9.745488 0.851286 11.557857 -11.022426 20.459704 -176.192885 75.232724 5.29375 -6.199127 -43.591251 -27.885647 -38.291229 15.618262 -1.481771 6.82473 1.794233 -10.4474 
-73.376122 85.080513 265.372711 98.337218 -4.675991 -38.759029 167.650572 16.742293 177.867893 -28.451744 3.748856 -0.092129 85.761775 4.755139 24.135819 21.454553 0.003086 2e-06 148.364153 6.514401 174.923221 -64.78248 -9.323553 6.837416 70.87259 -2.476935 6.490349 21.454563 -0.003116 -1.4e-05 7.072574 2.080123 -0.704621 4.1106 4.183621 -1.336549 3.791677 4.175613 -1.361816 -2.223176 2.830732 19.149178 -5.614601 -21.156911 25.743905 -167.556712 -71.84717 -14.147632 -11.796948 56.44776 22.013124 -32.657405 -11.055744 1.027975 8.861131 -11.05006 24.087289 -173.00249 74.485781 8.555083 -3.900489 -43.907793 -29.98215 -39.395483 15.80828 -1.522499 6.54957 1.86985 -10.128963 
-75.031921 85.541649 263.06839 98.220354 -5.041086 -30.001951 171.374268 15.9182 -179.718082 -27.618215 3.595308 3.783096 85.34236 2.551239 25.23328 21.454553 0.003095 0.0 147.592875 4.987398 172.761343 -55.788101 -10.762538 7.643855 72.736344 -2.922344 7.232007 21.454562 -0.003103 -1.8e-05 7.01929 2.014588 -1.063429 3.991667 4.064178 -2.05877 3.672927 4.051804 -2.083296 -2.839565 3.705217 18.125961 -5.517745 -21.153419 25.100283 -169.493603 -72.62967 -12.153912 -16.068029 56.067944 21.071087 -36.363862 -12.03036 1.173721 6.03752 -12.096227 29.892391 -170.957395 73.850451 10.649477 -2.458755 -44.415726 -31.351159 -39.260518 15.838729 -1.52097 6.536068 1.949121 -9.888029 
-77.13903 85.811989 261.036713 97.71313 -5.427487 -22.038939 175.137033 14.818495 -176.837477 -26.928308 3.094266 6.734327 84.963435 0.926813 26.162392 21.454555 0.003096 -0.0 147.50706 3.500004 169.241555 -46.409769 -11.077938 6.063715 75.646278 -1.521073 8.933068 21.45456 -0.003107 -1.7e-05 7.094788 1.874219 -1.364244 4.134834 3.795391 -2.662778 3.816374 3.779378 -2.685659 -2.995437 4.371683 17.148243 -5.673795 -21.205733 24.51319 -171.850387 -73.161633 -9.73232 -20.431722 55.403291 19.658925 -39.260904 -12.622684 1.283294 3.660167 -13.242208 35.721517 -170.04801 73.308953 11.581287 -2.333736 -44.756447 -32.02704 -38.009405 15.68854 -1.479229 6.852325 1.211386 -10.110539 
